<?xml version="1.0" encoding="UTF-8" standalone="no"?>
<svg
   xmlns="http://www.w3.org/2000/svg"
   viewBox="0 0 343.04065 14.583879"
   height="14.583879"
   width="343.04065"
   id="svg2"
   version="1.1">
  <metadata
     id="metadata8">
    image/svg+xml
  </metadata>
  <defs
     id="defs6" />
  <g
     transform="translate(-12.693478,-17.662054)"
     id="g10"
  >
    <g
       transform="translate(-1.2658742,2.5317483)"
       id="g837">
      <path
         id="path857"
         d="M 15.32263,29.372643 C 14.445826,29.007071 14.419903,28.067168 15.221087,25.690877 15.812792,23.935895 16.492522,22.275 16.731599,22 16.970677,21.725 90.591371,21.275 180.33314,21 L 343.5,20.5 349.71987,17.75 C 356.75945,14.637578 357,14.58326 357,16.106096 c 0,2.609685 -6.29331,8.781068 -11.22952,11.011949 L 340.5,29.5 178.5,29.681766 C 89.4,29.781738 15.970184,29.642632 15.32263,29.372643 Z"
         style="fill:#cbf5fe" />
      <path
         id="path855"
         d="M 15.993992,25.011776 18.028632,21.023552 181.26432,20.761776 344.5,20.5 l 6.25,-2.633758 c 3.4375,-1.448567 6.25,-2.171782 6.25,-1.607143 0,0.564638 -2.1375,3.155447 -4.75,5.757353 -3.77891,3.763586 -5.83337,4.96102 -10.04922,5.857143 C 338.39632,28.682272 291.35503,29 175.43046,29 H 13.959352 Z"
         style="fill:#abd1fc" />
      <path
         id="path853"
         d="M 16.210649,25.267434 18.27424,21.5 175.38712,21.77203 c 104.05229,0.18016 159.38834,-0.07555 163.85054,-0.757154 3.70572,-0.566052 9.21822,-2.126202 12.25,-3.467001 C 354.51945,16.207075 357,15.454296 357,15.87503 c 0,1.986364 -7.41479,9.090811 -11.22716,10.757252 -4.10631,1.794925 -10.65206,1.878141 -167.94931,2.135152 L 14.147059,29.034868 Z"
         style="fill:#8fb7e8" />
      <path
         id="path851"
         d="M 16.122127,25.517582 18.176804,22.035164 180.3384,21.767582 342.5,21.5 l 6.45151,-2.715153 c 3.54834,-1.493334 6.64859,-2.518082 6.88945,-2.277218 0.24087,0.240864 -0.72441,1.961856 -2.14506,3.824426 -3.14033,4.117175 -7.85826,6.471771 -15.46357,7.717455 -3.40125,0.557096 -70.47829,0.941261 -164.9486,0.944698 L 14.067451,29 Z"
         style="fill:#5a98de" />
      <path
         id="path849"
         d="m 15.188221,28.281599 c 0.206775,-0.429879 0.993241,-2.012503 1.747703,-3.516941 L 18.307673,22.029316 180.90384,21.764658 343.5,21.5 l 6.21552,-2.619831 c 5.21923,-2.199897 6.06688,-2.342097 5.28821,-0.887144 -1.60748,3.003611 -7.80031,7.847679 -11.7264,9.172459 -2.98378,1.006817 -37.88303,1.340041 -166.1212,1.58615 C 87.867007,28.922995 14.981446,28.711479 15.188221,28.281599 Z"
         style="fill:#036ef2" />
      <path
         id="path847"
         d="m 15.188221,28.281599 c 0.206775,-0.429879 0.993241,-2.012503 1.747703,-3.516941 L 18.307673,22.029316 180.90384,21.764658 343.5,21.5 l 6.21552,-2.619831 c 5.21923,-2.199897 6.06688,-2.342097 5.28821,-0.887144 -1.60748,3.003611 -7.80031,7.847679 -11.7264,9.172459 -2.98378,1.006817 -37.88303,1.340041 -166.1212,1.58615 C 87.867007,28.922995 14.981446,28.711479 15.188221,28.281599 Z m 7.689894,-2.185108 C 24.399114,25.133106 23.574812,23 21.68153,23 c -0.66024,0 -1.762496,0.9 -2.449457,2 -1.071614,1.715926 -0.999253,1.997825 0.509453,1.984687 0.967161,-0.0084 2.378626,-0.40811 3.136589,-0.888196 z m 4.726052,-1.825658 c -1.016516,-1.016515 -1.855248,0.513892 -1.021218,1.863382 0.630035,1.019417 0.865577,1.020206 1.204302,0.004 0.231595,-0.694785 0.149207,-1.535121 -0.183084,-1.867413 z M 332.4349,26.024751 c 1.41081,-0.536387 2.5651,-1.436387 2.5651,-2 C 335,23.329563 285.95556,23 182.5,23 87.876376,23 30,23.357119 30,23.940983 c 0,0.517541 0.45,1.219098 1,1.559017 0.55,0.339919 1,0.2528 1,-0.193596 0,-0.446397 64.7625,-0.810455 143.91667,-0.809019 79.15416,0.0014 143.90087,0.227613 143.88158,0.502613 -0.0193,0.275001 0.0182,0.837502 0.0833,1.250002 0.17186,1.088444 9.54018,0.920345 12.55332,-0.225249 z M 344.5651,25 C 346.06279,25 347,24.422639 347,23.5 c 0,-0.825 0.7875,-1.552201 1.75,-1.616001 1.66469,-0.110347 1.66477,-0.138279 0.002,-0.573018 -0.96163,-0.25136 -2.42543,0.220003 -3.2529,1.047472 -0.82747,0.827469 -2.74068,1.363665 -4.25159,1.191545 -2.90954,-0.331449 -5.57967,1.10288 -4.70069,2.525098 0.28842,0.466666 1.66276,0.415678 3.05409,-0.113307 C 340.99184,25.432805 343.2259,25 344.5651,25 Z"
         style="fill:#0370ee" />
      <path
         id="path845"
         d="m 15.188221,28.281599 c 0.206775,-0.429879 0.993241,-2.012503 1.747703,-3.516941 L 18.307673,22.029316 180.90384,21.764658 343.5,21.5 l 6.21552,-2.619831 c 5.21923,-2.199897 6.06688,-2.342097 5.28821,-0.887144 -1.60748,3.003611 -7.80031,7.847679 -11.7264,9.172459 -2.98378,1.006817 -37.88303,1.340041 -166.1212,1.58615 C 87.867007,28.922995 14.981446,28.711479 15.188221,28.281599 Z m 8.62362,-3.020115 C 23.331746,22.768551 20.716709,22.605824 19.241526,24.977085 18.081177,26.842271 18.223343,27 21.06485,27 c 2.389013,0 3.006534,-0.390817 2.746991,-1.738516 z m 9.534734,0.986763 c 0.619765,-1.002802 284.650145,-0.795505 286.939515,0.20942 2.0038,0.879574 11.19104,0.231196 14.12795,-0.997064 1.31292,-0.549078 1.69711,-0.449462 1.22329,0.317185 -0.4601,0.744464 0.0695,0.948013 1.58596,0.609589 1.25219,-0.279442 3.96421,-0.76517 6.02671,-1.079395 2.10873,-0.321269 3.75,-1.138109 3.75,-1.866327 0,-0.712254 0.7875,-1.500802 1.75,-1.752329 1.3659,-0.356947 1.27445,-0.482784 -0.41667,-0.573325 -1.19166,-0.0638 -2.32108,0.347248 -2.50981,0.913442 -0.23343,0.700275 -51.02076,1.022269 -158.83333,1.00701 -89.748148,-0.0127 -159.087921,0.359765 -159.868305,0.858754 -0.757964,0.484652 -1.068906,1.381498 -0.690983,1.99299 0.769492,1.245065 6.194156,1.527489 6.915673,0.36005 z"
         style="fill:#046eee" />
      <path
         id="path843"
         d="m 15.188221,28.281599 c 0.206775,-0.429879 0.993241,-2.012503 1.747703,-3.516941 L 18.307673,22.029316 180.90384,21.764658 343.5,21.5 l 6.21552,-2.619831 c 5.21923,-2.199897 6.06688,-2.342097 5.28821,-0.887144 -1.60748,3.003611 -7.80031,7.847679 -11.7264,9.172459 -2.98378,1.006817 -37.88303,1.340041 -166.1212,1.58615 C 87.867007,28.922995 14.981446,28.711479 15.188221,28.281599 Z m 327.912559,-2.44783 c 3.29197,-1.129435 10.27774,-5.788586 9.63816,-6.428165 -0.42167,-0.421666 -7.51741,2.039536 -8.38694,2.909058 C 343.97507,22.691598 270.66915,23 181.44996,23 20.074267,23 19.230551,23.010369 18.710251,25 c -0.52141,1.993875 -0.03068,2 160.234149,2 119.83748,0 161.6224,-0.296856 164.15638,-1.166231 z"
         style="fill:#116cdc" />
      <path
         id="path841"
         d="m 15.198754,28.25 c 0.200981,-0.4125 0.985713,-1.9875 1.743848,-3.5 L 18.32103,22 178.91052,22.246921 339.5,22.493841 179.5,22.744458 C 30.480903,22.977876 19.414212,23.111308 18.25,24.688667 17.5625,25.620143 17,26.744849 17,27.188015 c 0,0.443165 70.5375,0.921069 156.75,1.062007 L 330.5,28.506275 172.66667,28.753137 C 85.858333,28.888912 14.997773,28.6625 15.198754,28.25 Z M 334.75,27.294267 c 1.2375,-0.238353 3.2625,-0.238353 4.5,0 1.2375,0.238353 0.225,0.433369 -2.25,0.433369 -2.475,0 -3.4875,-0.195016 -2.25,-0.433369 z m 8.0625,-0.977381 c 0.72187,-0.288871 1.58438,-0.253344 1.91667,0.07895 0.33229,0.332292 -0.25834,0.568641 -1.3125,0.52522 -1.16495,-0.04798 -1.4019,-0.284941 -0.60417,-0.604167 z M 349.5,23 c 0.99549,-1.1 2.03498,-2 2.30998,-2 0.275,0 -0.31449,0.9 -1.30998,2 -0.99549,1.1 -2.03498,2 -2.30998,2 -0.275,0 0.31449,-0.9 1.30998,-2 z m -8.6875,-1.683114 c 0.72187,-0.288871 1.58438,-0.253344 1.91667,0.07895 0.33229,0.332292 -0.25834,0.568641 -1.3125,0.52522 -1.16495,-0.04798 -1.4019,-0.284941 -0.60417,-0.604167 z m 11.40912,-2.158754 c -0.92598,-0.587617 -0.57276,-1.132741 1.28136,-1.977535 2.3867,-1.087453 2.48764,-1.031579 1.49319,0.826555 -1.21847,2.276732 -1.0867,2.222069 -2.77455,1.15098 z"
         style="fill:#186ad4" />
      <path
         id="path839"
         d="m 15,28.059017 c 0,-0.517541 0.45,-1.219098 1,-1.559017 0.55,-0.339919 1,-0.142878 1,0.437868 0,0.735622 47.545965,1.13363 156.75,1.312154 L 330.5,28.506275 172.75,28.753137 C 74.670993,28.906621 15,28.644061 15,28.059017 Z m 338.56476,-9.954232 c -0.3043,-0.492369 0.0962,-1.144451 0.89006,-1.449073 0.96277,-0.36945 1.25818,-0.07139 0.88726,0.895216 -0.6446,1.679815 -1.01089,1.79396 -1.77732,0.553857 z"
         style="fill:#2568b6" />
    </g>
  </g>
</svg>
