<?xml version="1.0" encoding="UTF-8" standalone="no"?>
<svg
   xmlns="http://www.w3.org/2000/svg"
   viewBox="0 0 343.06525 15.215823"
   height="15.215823"
   width="343.06525"
   id="svg2"
   version="1.1">
  <metadata
     id="metadata8">
    image/svg+xml
  </metadata>
  <defs
     id="defs6" />
  <g
     transform="translate(-20.668355,-14.917874)"
     id="g10"
  >
    <g
       transform="translate(-1.3070408,1.960561)"
       id="g837">
      <path
         id="path857"
         d="M 201.5,27.952469 C 73.127629,27.515899 39.509743,27.138944 35.61361,26.092395 c -3.397281,-0.91255 -6.216183,-2.642336 -9.25,-5.676153 -5.811802,-5.811802 -5.863593,-9.752292 -0.07843,-5.967106 1.218149,0.797025 4.896861,2.147025 8.174916,3 C 39.724726,18.819033 59.11457,19 200.62854,19 h 160.20834 l 2.21382,3.582029 c 1.85878,3.00757 1.99214,3.76934 0.83156,4.75 -1.04742,0.885041 -40.38303,1.035337 -162.38226,0.62044 z"
         style="fill:#cbf3fe" />
      <path
         id="path855"
         d="M 35.5,25.525697 C 31.70145,24.508205 29.478767,23.059435 26.25,19.496443 23.9125,16.916977 22,14.394003 22,13.889833 c 0,-0.50417 1.6875,-0.183665 3.75,0.712235 C 36.306968,19.187755 28.883395,19 199.63861,19 H 360.95935 L 363,23 365.04065,27 202.77032,26.93251 C 70.502278,26.877492 39.575546,26.617386 35.5,25.525697 Z"
         style="fill:#aad2fa" />
      <path
         id="path853"
         d="M 38.3264,25.955623 C 36.03092,25.501737 32.80892,24.435429 31.166398,23.586048 28.342212,22.125604 22,15.373468 22,13.827185 c 0,-0.39442 2.499964,0.388476 5.555476,1.739768 3.055511,1.351292 8.568011,2.892615 12.25,3.425162 C 43.885299,19.582204 108.01525,19.980839 204,20.012757 l 157.5,0.05237 1.62353,3.467434 L 364.74706,27 203.62353,26.890434 C 115.00559,26.830173 40.62188,26.409508 38.3264,25.955623 Z"
         style="fill:#89b7f0" />
      <path
         id="path851"
         d="M 39.858543,25.980806 C 31.373644,24.547679 26.468964,21.171128 22.455573,14 c -0.669176,-1.195684 -0.546949,-1.273387 0.602469,-0.383005 0.793077,0.614347 4.141958,2.189347 7.441958,3.5 l 6,2.383005 162.16327,0.270419 162.16327,0.270418 2.05301,3.479582 L 364.93255,27 204.71627,26.882381 C 116.59732,26.817691 42.411344,26.411982 39.858543,25.980806 Z"
         style="fill:#5e95d8" />
      <path
         id="path849"
         d="M 42.399794,25.979571 C 34.625738,25.15963 31.946051,24.0955 27.663944,20.127814 22.069719,14.944355 22.525366,14.031213 29.284481,16.880169 L 35.5,19.5 l 162.59616,0.264658 162.59617,0.264658 1.37175,2.735342 c 0.75446,1.504438 1.53618,3.072842 1.73717,3.485342 0.47533,0.975587 -312.081108,0.7126 -321.401456,-0.270429 z"
         style="fill:#046ef1" />
      <path
         id="path847"
         d="M 42.399794,25.979571 C 34.625738,25.15963 31.946051,24.0955 27.663944,20.127814 22.069719,14.944355 22.525366,14.031213 29.284481,16.880169 L 35.5,19.5 l 162.59616,0.264658 162.59617,0.264658 1.37175,2.735342 c 0.75446,1.504438 1.53618,3.072842 1.73717,3.485342 0.47533,0.975587 -312.081108,0.7126 -321.401456,-0.270429 z M 361,23.606989 c 0,-0.766156 -0.7118,-1.666156 -1.58179,-2 -0.86998,-0.333844 -73.43248,-0.626849 -161.25,-0.651122 C 38.602794,20.911763 33.113454,20.806073 28.25,17.684317 c -2.316322,-1.486802 -1.273496,0.562777 1.5,2.948112 1.5125,1.300821 3.65,2.372569 4.75,2.381662 1.1,0.0091 2.675,0.452753 3.5,0.985909 0.952307,0.615428 60.194402,0.974966 162.25,0.984687 C 336.99233,24.997713 361,24.791957 361,23.606989 Z M 352,23 c 0,-0.55 0.45,-1 1,-1 0.55,0 1,0.45 1,1 0,0.55 -0.45,1 -1,1 -0.55,0 -1,-0.45 -1,-1 z"
         style="fill:#2b6dc8" />
      <path
         id="path845"
         d="M 45,25.97734 C 41.425,25.584689 37.15,24.956428 35.5,24.581204 32.279985,23.848945 25.796377,19.147062 25.735456,17.5 c -0.02034,-0.55 -0.756643,-1.558969 -1.636222,-2.242154 -0.879579,-0.683184 0.714615,-0.233184 3.542652,1 3.470615,1.513385 4.526965,2.346018 3.25,2.561705 -3.925653,0.663066 -1.598148,2.562208 6.179112,5.041884 C 39.679917,24.693254 83.796572,25 200.821,25 337.06794,25 361,24.791873 361,23.606989 c 0,-0.766156 -0.7118,-1.666156 -1.58179,-2 -0.86998,-0.333844 -73.65748,-0.638617 -161.75,-0.677274 C 98.875475,20.886362 36.733612,20.495844 35.5,19.9106 33.94526,19.173009 34.251376,19.077341 36.875,19.480885 38.73125,19.766398 112.34652,20 200.46448,20 h 160.21449 l 1.37843,2.75 c 0.75813,1.5125 1.54104,3.08202 1.73979,3.487823 C 364.26015,27.183085 53.667441,26.929305 45,25.97734 Z M 29,18.559017 C 29,18.316476 28.55,17.839919 28,17.5 27.45,17.160081 27,17.358524 27,17.940983 27,18.523442 27.45,19 28,19 c 0.55,0 1,-0.198442 1,-0.440983 z M 352,23 c 0,-0.55 0.45,-1 1,-1 0.55,0 1,0.45 1,1 0,0.55 -0.45,1 -1,1 -0.55,0 -1,-0.45 -1,-1 z"
         style="fill:#116ddd" />
      <path
         id="path843"
         d="m 50,25.991605 c -0.986903,-0.647829 52.25702,-0.900315 155.65462,-0.738122 93.52355,0.146703 156.92824,-0.119714 156.59549,-0.657991 -0.30752,-0.49748 -0.0396,-0.583423 0.59538,-0.190984 0.63498,0.39244 1.15451,1.131493 1.15451,1.642341 0,1.303823 -312.013225,1.248929 -314,-0.05524 z M 38.047746,25.05067 c -0.79874,-0.505287 -1.81124,-0.696839 -2.25,-0.42567 C 35.358986,24.896169 35,24.641476 35,24.059017 c 0,-0.582459 0.3375,-1.043071 0.75,-1.023582 1.221484,0.05771 5.841596,2.891851 4.75,2.913817 -0.55,0.01107 -1.653514,-0.393294 -2.452254,-0.898582 z M 352,23 c 0,-0.55 0.45,-1 1,-1 0.55,0 1,0.45 1,1 0,0.55 -0.45,1 -1,1 -0.55,0 -1,-0.45 -1,-1 z m 6.5,-1.536115 -3,-1.373677 2.64301,-0.0451 c 1.46041,-0.02492 2.90056,0.626062 3.21862,1.454896 0.31658,0.825 0.47722,1.463452 0.35699,1.418781 -0.12024,-0.04467 -1.56862,-0.699377 -3.21862,-1.4549 z M 36.5,20 C 36.160081,19.45 36.358524,19 36.940983,19 37.523442,19 38,19.45 38,20 38,20.55 37.801558,21 37.559017,21 37.316476,21 36.839919,20.55 36.5,20 Z m 82.67133,0.250108 c 42.71923,-0.144284 112.91923,-0.144301 156,-3.8e-5 C 318.2521,20.394333 283.3,20.512384 197.5,20.512405 111.7,20.512426 76.452099,20.394393 119.17133,20.250108 Z M 28.225223,18.94933 c 0.151128,-0.659632 -0.350361,-1.426459 -1.114419,-1.704062 -0.931789,-0.338544 -1.127861,-0.08188 -0.595491,0.779509 0.535804,0.866949 0.396949,1.039032 -0.427336,0.529596 -0.671571,-0.415054 -0.973095,-1.002588 -0.670052,-1.305632 0.303043,-0.303043 -0.229517,-1.167625 -1.183469,-1.921293 -1.064307,-0.840855 -0.285554,-0.710904 2.015544,0.336336 3.836641,1.746071 4.534986,2.733034 2.725223,3.851529 -0.563627,0.34834 -0.901127,0.09365 -0.75,-0.565983 z"
         style="fill:#0e6ede" />
      <path
         id="path841"
         d="m 128.32864,26.250071 c 42.80575,-0.144305 112.55575,-0.144288 155,3.9e-5 42.44425,0.144326 7.42136,0.262394 -77.82864,0.262372 -85.25,-2.1e-5 -119.977112,-0.118106 -77.17136,-0.262411 z m 233.42759,0.08557 c 0.69093,-0.278554 0.9589,-0.987557 0.59549,-1.575561 -0.39053,-0.6319 -0.18861,-0.777308 0.49377,-0.355573 1.74489,1.078402 1.38346,2.60582 -0.59549,2.516545 -1.05575,-0.04763 -1.25163,-0.279869 -0.49377,-0.585411 z m -242.5849,-6.085534 c 42.71923,-0.144284 112.91923,-0.144301 156,-3.8e-5 43.08077,0.144263 8.12867,0.262314 -77.67133,0.262335 -85.8,2.1e-5 -121.047901,-0.118012 -78.32867,-0.262297 z m 238.0977,0.0569 c 0.97297,-0.253543 2.32297,-0.236869 3,0.03705 0.67703,0.273923 -0.11903,0.481368 -1.76903,0.460988 -1.65,-0.02038 -2.20394,-0.244498 -1.23097,-0.498042 z M 25.5,18 c -0.339919,-0.55 -0.280468,-1 0.132113,-1 0.41258,0 -0.123362,-0.682313 -1.190983,-1.516251 -1.788022,-1.396655 -1.715276,-1.419356 0.922291,-0.287807 1.574881,0.675644 2.359578,1.396392 1.743769,1.601661 -0.615808,0.20527 -0.86529,0.784783 -0.554404,1.287807 C 26.863673,18.588435 26.893034,19 26.618034,19 26.343034,19 25.839919,18.55 25.5,18 Z"
         style="fill:#166cce" />
      <path
         id="path839"
         d="m 128.32864,26.250071 c 42.80575,-0.144305 112.55575,-0.144288 155,3.9e-5 42.44425,0.144326 7.42136,0.262394 -77.82864,0.262372 -85.25,-2.1e-5 -119.977112,-0.118106 -77.17136,-0.262411 z m 233.42759,0.08557 c 0.69093,-0.278554 0.9589,-0.987557 0.59549,-1.575561 -0.39053,-0.6319 -0.18861,-0.777308 0.49377,-0.355573 1.74489,1.078402 1.38346,2.60582 -0.59549,2.516545 -1.05575,-0.04763 -1.25163,-0.279869 -0.49377,-0.585411 z M 23.507079,15.011454 c -0.350339,-0.56686 0.05106,-0.734507 0.940983,-0.393011 C 26.180479,15.283234 26.497449,16 25.059017,16 24.541476,16 23.843104,15.555154 23.507079,15.011454 Z"
         style="fill:#2567b7" />
    </g>
  </g>
</svg>
