<?xml version="1.0" encoding="UTF-8" standalone="no"?>
<svg
   xmlns="http://www.w3.org/2000/svg"
   viewBox="0 0 343 14.193671"
   height="14.193671"
   width="343"
   id="svg2"
   version="1.1">
  <metadata
     id="metadata8">
    image/svg+xml
  </metadata>
  <defs
     id="defs6" />
  <g
     transform="translate(-13.304889,-9.7770871)"
     id="g10"
  >
    <g
       transform="translate(2.3048892)"
       id="g837">
      <path
         id="path855"
         d="m 11.315757,22.75 c 0.291354,-0.6875 1.126999,-2.483989 1.856989,-3.992198 L 14.5,16.015604 l 158.56634,-0.0078 c 109.05696,-0.0054 160.38714,-0.344395 164.39792,-1.085827 3.20736,-0.592914 8.24001,-2.143151 11.18366,-3.444971 C 351.59156,10.175184 354,9.4687475 354,9.9071458 c 0,0.4383982 -1.02992,2.3261352 -2.2887,4.1949712 -3.21687,4.775869 -9.21344,7.759213 -17.8498,8.880427 -4.40048,0.571291 -70.85636,0.968124 -165.21849,0.98658 C 42.732104,23.993752 10.893227,23.747033 11.315757,22.75 Z"
         style="fill:#b6e6fc" />
      <path
         id="path853"
         d="m 11,23.604527 c 0,-0.269614 0.944449,-2.090929 2.098776,-4.047367 L 15.197552,16 H 174.54955 c 165.34963,0 164.57579,0.01845 174.31294,-4.155383 2.43132,-1.042184 4.58734,-1.72812 4.79116,-1.524301 0.20382,0.203818 -1.46588,2.456901 -3.71043,5.006851 -7.72889,8.780481 7.21634,8.066681 -176.69322,8.439052 C 84.0125,23.946902 11,23.874141 11,23.604527 Z"
         style="fill:#82cafb" />
      <path
         id="path851"
         d="m 12,22.628964 c 0,-0.220193 0.668673,-1.689288 1.48594,-3.264657 L 14.97188,16.5 177.73594,16 340.5,15.5 l 6.25,-2.633758 c 3.4375,-1.448567 6.25,-2.251726 6.25,-1.784797 0,1.945553 -6.3291,7.844404 -10.26273,9.565069 -4.0604,1.776118 -11.05165,1.864533 -167.48727,2.118143 C 85.4625,22.910219 12,22.849157 12,22.628964 Z"
         style="fill:#5bb0ea" />
      <path
         id="path849"
         d="M 13.473104,20.052011 15.015742,17.068879 176.25787,16.78444 337.5,16.5 l 7.44801,-2.718654 c 4.09641,-1.495259 7.62223,-2.544443 7.83515,-2.33152 0.89137,0.891368 -7.93267,8.280376 -11.45666,9.593495 -3.24337,1.208551 -28.63373,1.468964 -166.61127,1.70883 L 11.930467,23.035142 Z"
         style="fill:#239bf9" />
      <path
         id="path847"
         d="M 13.473104,20.052011 15.015742,17.068879 176.25787,16.78444 337.5,16.5 l 7.44801,-2.718654 c 4.09641,-1.495259 7.62223,-2.544443 7.83515,-2.33152 0.89137,0.891368 -7.93267,8.280376 -11.45666,9.593495 -3.24337,1.208551 -28.63373,1.468964 -166.61127,1.70883 L 11.930467,23.035142 Z M 325,19.798729 c 0,-0.386812 -2.8125,-0.837267 -6.25,-1.001012 C 305.06,18.145597 16.920813,19.062855 17.349935,19.75719 17.93482,20.703553 325,20.745013 325,19.798729 Z m 5,0.1398 c 0.275,-0.308809 2.075,-1.087765 4,-1.731013 3.0617,-1.023084 3.12432,-1.10336 0.5,-0.641041 -1.65,0.290675 -3.84385,0.780341 -4.87523,1.088147 -1.20657,0.36009 -1.63377,0.168954 -1.19806,-0.536034 0.40685,-0.658307 0.12419,-0.883484 -0.70811,-0.564101 -1.9199,0.736737 -1.74799,3.515186 0.19807,3.201076 C 328.7875,20.615004 329.725,20.247338 330,19.938529 Z M 338,20 c 1.97958,-0.633973 2.08367,-0.80064 0.5,-0.80064 -1.1,0 -3.125,0.360288 -4.5,0.80064 -1.97958,0.633973 -2.08367,0.80064 -0.5,0.80064 1.1,0 3.125,-0.360288 4.5,-0.80064 z m 5.72917,-1.604167 c -0.33229,-0.332291 -1.1948,-0.367818 -1.91667,-0.07895 -0.79773,0.319226 -0.56078,0.556183 0.60417,0.604167 1.05416,0.04342 1.64479,-0.192928 1.3125,-0.52522 z"
         style="fill:#239bf5" />
      <path
         id="path845"
         d="M 13.490914,20.017571 15.05136,17 170.77568,17.246813 326.5,17.493625 172.09864,17.749986 C 60.005828,17.9361 17.327729,18.313046 16.348639,19.125618 14.858877,20.362011 14.471324,22.444774 15.894715,21.56507 16.386808,21.26094 86.136808,21.003822 170.89471,20.993697 271.66723,20.98166 325,20.633485 325,19.987645 325,19.44444 325.47656,19 326.05902,19 c 0.58246,0 0.78006,0.451357 0.43912,1.003017 -0.69106,1.118151 2.29787,0.878465 4.25186,-0.340964 0.73074,-0.456032 1.25,-0.296774 1.25,0.383374 0,0.793577 1.42798,0.988578 4.49167,0.613371 4.83631,-0.592299 7.68129,-1.792942 7.69793,-3.248693 0.006,-0.500558 0.44885,-0.786456 0.98473,-0.635328 0.53588,0.151127 0.66509,-0.225583 0.28713,-0.837133 -0.49485,-0.800684 -0.99148,-0.807619 -1.77433,-0.02478 -0.59792,0.597922 -2.23463,1.11876 -3.63713,1.157417 -2.32136,0.06398 -2.37067,0.147345 -0.55,0.929715 1.75921,0.755957 1.6618,0.867892 -0.80902,0.929715 -1.7434,0.04362 -2.55961,-0.333266 -2.15156,-0.993495 0.44411,-0.718594 -0.48345,-0.849745 -2.85855,-0.404174 -1.96573,0.368774 -4.32394,0.189845 -5.34843,-0.405812 -1.44807,-0.841933 -0.57387,-1.076219 4.16756,-1.116917 3.69275,-0.0317 8.67068,-0.993812 12.9451,-2.501977 3.8198,-1.347762 7.12062,-2.274954 7.33515,-2.060428 0.89362,0.893625 -7.92349,8.280954 -11.45375,9.596409 -3.24337,1.208551 -28.63373,1.468964 -166.61127,1.70883 l -162.784763,0.282991 1.560447,-3.017571 z"
         style="fill:#289bed" />
      <path
         id="path843"
         d="M 13.548056,19.90707 C 14.427735,18.205958 15.35614,17.022806 15.611177,17.277844 16.292247,17.958914 13.827828,23 12.813805,23 12.337964,23 12.668377,21.608181 13.548056,19.90707 Z M 175.5,22.009029 c 88,-0.279966 160.53141,-0.853869 161.1809,-1.275341 0.6495,-0.421471 1.42663,-0.368716 1.72696,0.117234 0.30034,0.48595 -1.53137,1.16829 -4.07047,1.516312 -2.53909,0.348021 -75.31623,0.524329 -161.72696,0.391795 L 15.5,22.518059 Z M 325,20 c 0,-0.55 0.47656,-1 1.05902,-1 0.58246,0 0.7809,0.45 0.44098,1 -0.33992,0.55 -0.81648,1 -1.05902,1 C 325.19844,21 325,20.55 325,20 Z m 5.5,0 c 0.33992,-0.55 0.81648,-1 1.05902,-1 0.24254,0 0.44098,0.45 0.44098,1 0,0.55 -0.47656,1 -1.05902,1 -0.58246,0 -0.7809,-0.45 -0.44098,-1 z M 344,19 c 1.08997,-0.70439 1.14217,-0.97356 0.19098,-0.984687 -0.71996,-0.0084 -1.00121,-0.513356 -0.625,-1.122076 0.47683,-0.77153 0.94441,-0.695806 1.54371,0.25 0.57524,0.907859 0.86475,0.962709 0.875,0.16578 0.0263,-2.047705 -1.65555,-2.350861 -5.07222,-0.91426 -2.74736,1.155176 -2.97199,1.467101 -1.35331,1.879164 1.40199,0.356902 1.16095,0.526283 -0.86818,0.610078 -1.75213,0.07236 -2.56165,-0.284241 -2.15156,-0.947779 0.44411,-0.718594 -0.48345,-0.849745 -2.85855,-0.404174 -1.96573,0.368774 -4.32394,0.189845 -5.34843,-0.405812 -1.45936,-0.848502 -0.71132,-1.071608 3.67416,-1.095825 3.02863,-0.01672 7.02361,-0.465481 8.87773,-0.997235 2.17331,-0.623298 4.01481,-0.622337 5.18271,0.0027 1.18416,0.633745 2.02621,0.622255 2.43129,-0.03317 0.34084,-0.551487 1.15565,-0.990599 1.81069,-0.975803 1.40729,0.03179 -5.34576,5.913929 -6.80902,5.930885 -0.55,0.0064 -0.325,-0.42463 0.5,-0.957786 z m 2.51009,-4.983675 c -0.5143,-0.832156 5.47664,-3.36293 6.2144,-2.62517 0.22009,0.220095 -0.97387,1.085635 -2.65326,1.923423 -1.67938,0.837787 -3.2819,1.153574 -3.56114,0.701747 z"
         style="fill:#1d9af7" />
      <path
         id="path841"
         d="M 13.548056,19.90707 C 14.427735,18.205958 15.35614,17.022806 15.611177,17.277844 16.292247,17.958914 13.827828,23 12.813805,23 12.337964,23 12.668377,21.608181 13.548056,19.90707 Z M 39.5,22.272063 C 97.471704,21.631488 338.92523,21.566459 335.39978,22.19237 333.2549,22.573174 260.4,22.806557 173.5,22.710999 86.6,22.615441 26.3,22.41792 39.5,22.272063 Z m 306.99879,-5.405144 c 1.96261,-1.723194 3.79052,-2.910946 4.06201,-2.639449 C 351.06074,14.727408 344.64061,20 343.53193,20 c -0.33084,0 1.00425,-1.409886 2.96686,-3.133081 z M 333.5,16.02993 c 3.85,-0.372223 8.125,-1.000002 9.5,-1.395064 l 2.5,-0.718296 -2.5,1.506279 c -1.65541,0.997407 -4.86484,1.468708 -9.5,1.395065 l -7,-0.111215 z m 15.36633,-3.66184 c 1.85148,-0.807819 3.60139,-1.233701 3.88869,-0.946404 0.60218,0.602182 -4.30015,2.618593 -6.07012,2.49674 -0.65169,-0.04487 0.32995,-0.742517 2.18143,-1.550336 z"
         style="fill:#4895d1" />
      <path
         id="path839"
         d="m 13,22.059017 c 0,-0.517541 0.444846,-1.215913 0.988546,-1.551938 0.56686,-0.350339 0.734507,0.05106 0.393011,0.940983 C 13.716766,23.180479 13,23.497449 13,22.059017 Z m 80.32864,0.191054 c 42.80575,-0.144305 112.55575,-0.144288 155,3.9e-5 C 290.77289,22.394436 255.75,22.512504 170.5,22.512482 85.25,22.512461 50.522888,22.394376 93.32864,22.250071 Z m 240.94039,-0.943062 c 0.97297,-0.253543 2.32297,-0.236869 3,0.03705 0.67703,0.273923 -0.11903,0.481368 -1.76903,0.460988 -1.65,-0.02038 -2.20394,-0.244498 -1.23097,-0.498042 z M 346.92431,16.75 c 1.70134,-1.929891 1.99956,-2.759069 1,-2.780409 -0.9948,-0.02124 -0.87398,-0.350432 0.40069,-1.091664 1.00375,-0.58369 2.09125,-0.795006 2.41667,-0.469591 C 351.06708,12.733751 350.78178,13 350.10765,13 c -0.67413,0 -0.988,0.384588 -0.69749,0.85464 0.29051,0.470052 -0.69543,1.932552 -2.19098,3.25 L 344.5,19.5 Z M 329,16.441821 c 3.57623,-0.777654 13.90216,-0.997448 12.75878,-0.271579 -0.69233,0.439523 -4.18378,0.753823 -7.75878,0.698444 -3.575,-0.05538 -5.825,-0.247468 -5,-0.426865 z"
         style="fill:#3096dc" />
    </g>
  </g>
</svg>
