<?xml version="1.0" encoding="UTF-8" standalone="no"?>
<svg
   xmlns="http://www.w3.org/2000/svg"
   viewBox="0 0 343.09433 14.834715"
   height="14.834715"
   width="343.09433"
   id="svg2"
   version="1.1">
  <metadata
     id="metadata8">
    image/svg+xml
  </metadata>
  <defs
     id="defs6" />
  <g
     transform="translate(-15.227061,-18.066566)"
     id="g10"
  >
    <g
       transform="translate(-8.6086222,3.0130181)"
       id="g837">
      <path
         id="path859"
         d="M 45.5,29.031104 C 36.366373,27.972748 32.544123,26.313965 28.080305,21.471294 24.250248,17.316173 22.331958,13.43477 25.25,15.74455 c 0.6875,0.544191 3.95,2.061792 7.25,3.372445 l 6,2.383005 162.5,0.272587 162.5,0.272587 1.32725,2.727413 c 0.72999,1.500077 1.56564,3.289913 1.85699,3.977413 0.42264,0.99729 -31.38388,1.222339 -157.32725,1.113176 C 122.53564,29.787923 48.8,29.41349 45.5,29.031104 Z"
         style="fill:#85c9fb" />
      <path
         id="path857"
         d="M 202.5,29.010302 C 46.158988,28.520847 39.325443,28.423699 35.227161,26.632282 31.394592,24.957012 24,17.857887 24,15.853727 c 0,-0.432452 1.4625,0.06062 3.25,1.095716 C 36.364224,22.227257 28.497394,22 202.08273,22 h 160.71972 l 2.09877,3.55716 c 2.27203,3.8508 2.50353,4.572195 1.34878,4.203142 -0.4125,-0.131834 -74.1,-0.469334 -163.75,-0.75 z"
         style="fill:#86bbe2" />
      <path
         id="path855"
         d="M 40.3264,27.955623 C 34.458568,26.795376 30.515569,24.542502 27.551693,20.656661 24.185342,16.243146 24.332922,15.603513 28.25,17.630094 c 8.587756,4.443052 4.70698,4.345535 173.43191,4.358037 L 361.86381,22 l 2.0681,2.90437 c 1.13745,1.597404 2.06809,3.172404 2.06809,3.5 0,0.92501 -320.962628,0.482753 -325.6736,-0.448747 z"
         style="fill:#60afe9" />
      <path
         id="path853"
         d="M 41.095326,27.869063 C 34.727969,26.812134 29.890952,24.059968 26.819371,19.74633 24.747239,16.836289 24.7298,16.682636 26.551478,17.385969 27.623165,17.799738 31.2,19.117956 34.5,20.315342 l 6,2.177067 160,0.264679 c 88,0.145573 160.55094,0.259781 161.22432,0.253795 C 362.3977,23.004897 363.64675,24.35 364.5,26 l 1.55136,3 -159.77568,-0.116903 C 117.28879,28.817988 44.105453,28.368719 41.095326,27.869063 Z"
         style="fill:#58aeed" />
      <path
         id="path851"
         d="M 41.241137,27.890047 C 35.178445,26.879979 29.160314,23.419809 26.557676,19.44768 24.804447,16.771915 24.806451,16.711886 26.625556,17.414396 27.6565,17.81253 31.2,19.119664 34.5,20.319138 l 6,2.180862 161.24213,0.28444 161.24213,0.284439 1.53355,2.965561 L 366.05136,29 206.27568,28.883097 C 118.39906,28.818801 44.133512,28.371928 41.241137,27.890047 Z"
         style="fill:#219cfb" />
      <path
         id="path849"
         d="M 41.241137,27.890047 C 35.261421,26.893803 29.167069,23.430117 26.659067,19.602423 24.604951,16.467445 24.586155,16.469547 31.21298,19.093228 34.120841,20.244504 40.55,21.58041 45.5,22.061909 c 4.95,0.481499 78.40511,0.897605 163.23358,0.92468 l 154.23358,0.04923 1.5421,2.982091 L 366.05136,29 206.27568,28.883097 C 118.39906,28.818801 44.133512,28.371928 41.241137,27.890047 Z M 44.992198,23.75 C 44.996489,23.3375 43.3125,23.052201 41.25,23.116001 c -2.0625,0.0638 -2.987442,0.316994 -2.055426,0.56265 0.949726,0.250325 1.461114,1.055035 1.163439,1.830764 -0.43842,1.142505 -0.08099,1.175208 2.047624,0.18735 1.418318,-0.658221 2.58227,-1.534265 2.586561,-1.946765 z m 1.736969,2.645833 c -0.332292,-0.332291 -1.194792,-0.367818 -1.916667,-0.07895 -0.797733,0.319226 -0.560776,0.556183 0.604167,0.604167 1.054166,0.04342 1.644791,-0.192928 1.3125,-0.52522 z m 5,0 c -0.332292,-0.332291 -1.194792,-0.367818 -1.916667,-0.07895 -0.797733,0.319226 -0.560776,0.556183 0.604167,0.604167 1.054166,0.04342 1.644791,-0.192928 1.3125,-0.52522 z M 360,25.840757 c 0,-0.702834 0.53699,-0.639984 1.52289,0.178242 1.24562,1.033768 1.42569,1.010543 0.989,-0.127555 C 362.05852,24.709871 339.55914,24.539181 213.34096,24.759768 127.93452,24.909029 63.384347,25.406364 61.601966,25.928859 59.705556,26.48478 117.0879,26.855325 209.25,26.882293 317.03882,26.913832 360,26.617012 360,25.840757 Z M 48.729167,24.395833 c -0.332292,-0.332291 -1.194792,-0.367818 -1.916667,-0.07895 -0.797733,0.319226 -0.560776,0.556183 0.604167,0.604167 1.054166,0.04342 1.644791,-0.192928 1.3125,-0.52522 z"
         style="fill:#259bf4" />
      <path
         id="path847"
         d="M 41.025987,27.859084 C 35.009184,26.862027 31.877033,25 36.216667,25 c 1.439166,0 2.775669,0.477009 2.970006,1.060019 0.231286,0.693858 1.31852,0.559277 3.147489,-0.389603 1.536783,-0.797292 3.77778,-1.179069 4.979994,-0.848394 1.977532,0.543932 1.899943,0.661341 -0.814156,1.231988 -6.338657,1.332721 20.072658,1.613178 166.25,1.765378 C 368.75581,27.98182 365.65707,28.057067 361.8,24.2 360.89582,23.295824 360.88949,23 361.7743,23 c 0.64588,0 1.87243,1.35 2.72568,3 l 1.55136,3 -159.77568,-0.116903 C 115.98365,28.817033 44.119447,28.371708 41.025987,27.859084 Z M 360,25.940983 c 0,-0.582459 0.45,-0.780902 1,-0.440983 0.55,0.339919 1,0.816476 1,1.059017 C 362,26.801558 361.55,27 361,27 c -0.55,0 -1,-0.476558 -1,-1.059017 z M 28.466667,21.533333 c -1.957636,-2.075698 -3.371992,-3.961341 -3.143015,-4.190319 0.228978,-0.228977 2.837329,0.551354 5.796335,1.73407 C 34.078994,20.2598 39.875,21.563353 44,21.973868 l 7.5,0.746391 -6.624273,0.139871 C 41.174446,22.938282 36.375478,22.338118 34,21.5 c -5.461748,-1.927017 -5.704891,-1.891837 -2.860784,0.41392 1.298431,1.052657 2.029135,2.246806 1.623786,2.653665 -0.405349,0.40686 -2.3387,-0.958554 -4.296335,-3.034252 z M 207.5,24 62.5,23.489898 207,23.260262 C 298.99709,23.114062 352.04501,23.38284 353,24 c 0.825,0.533156 1.05,0.866038 0.5,0.739738 C 352.95,24.613438 287.25,24.280556 207.5,24 Z m 148.3125,-0.683114 c 0.72187,-0.288871 1.58438,-0.253344 1.91667,0.07895 0.33229,0.332292 -0.25834,0.568641 -1.3125,0.52522 -1.16495,-0.04798 -1.4019,-0.284941 -0.60417,-0.604167 z"
         style="fill:#1d9cfa" />
      <path
         id="path845"
         d="M 41.025987,27.859084 C 35.009184,26.862027 31.877033,25 36.216667,25 c 1.439166,0 2.804101,0.5625 3.033187,1.25 0.330385,0.991499 33.849332,1.311067 162.083336,1.545293 C 370.40898,28.104118 365.80722,28.207222 361.8,24.2 360.89582,23.295824 360.88949,23 361.7743,23 c 0.64588,0 1.87243,1.35 2.72568,3 l 1.55136,3 -159.77568,-0.116903 C 115.98365,28.817033 44.119447,28.371708 41.025987,27.859084 Z m -12.55932,-6.325751 c -1.957636,-2.075698 -3.371992,-3.961341 -3.143015,-4.190319 0.228978,-0.228977 2.837329,0.551354 5.796335,1.73407 C 34.078994,20.2598 39.875,21.563353 44,21.973868 l 7.5,0.746391 -6.624273,0.139871 C 41.174446,22.938282 36.375478,22.338118 34,21.5 c -5.513631,-1.945322 -6.008016,-1.856528 -3.108337,0.558273 1.315414,1.095454 2.108765,2.274632 1.763001,2.620396 -0.345763,0.345763 -2.230362,-1.069638 -4.187997,-3.145336 z m 106.205003,1.716792 c 39.69442,-0.144778 104.94442,-0.144798 145,-4.4e-5 40.05558,0.144753 7.57833,0.263208 -72.17167,0.263232 -79.75,2.5e-5 -112.522747,-0.11841 -72.82833,-0.263188 z m 221.14083,0.06676 c 0.72187,-0.288871 1.58438,-0.253344 1.91667,0.07895 0.33229,0.332292 -0.25834,0.568641 -1.3125,0.52522 -1.16495,-0.04798 -1.4019,-0.284941 -0.60417,-0.604167 z"
         style="fill:#2d98eb" />
      <path
         id="path843"
         d="M 45.654422,28.25 C 45.399435,27.8375 116.92288,27.619254 204.59541,27.765009 292.26793,27.910764 364,27.76868 364,27.449267 364,27.129855 363.53417,25.998101 362.96482,24.934259 362.39547,23.870416 362.15891,23 362.43914,23 c 0.28022,0 1.20761,1.35 2.06086,3 l 1.55136,3 H 206.0847 C 118.10303,29 45.909409,28.6625 45.654422,28.25 Z M 39.8125,27.316886 c 0.721875,-0.288871 1.584375,-0.253344 1.916667,0.07895 0.332291,0.332292 -0.258334,0.568641 -1.3125,0.52522 -1.164943,-0.04798 -1.4019,-0.284941 -0.604167,-0.604167 z M 34.5,26 c -0.782182,-1.265597 0.541628,-1.265597 2.5,0 1.292687,0.835399 1.266292,0.971491 -0.190983,0.984687 C 35.878976,26.993109 34.839919,26.55 34.5,26 Z m -6.874685,-5.219504 c -1.385802,-1.770727 -2.377663,-3.361482 -2.204135,-3.53501 0.173529,-0.173528 2.512252,0.617373 5.197163,1.757558 2.684911,1.140184 3.981657,1.881993 2.881657,1.648463 -1.1,-0.23353 -2.89878,-0.791501 -3.997288,-1.239936 -1.951146,-0.796499 -1.956389,-0.752916 -0.226947,1.886547 2.436527,3.718611 1.413898,3.397889 -1.65045,-0.517622 z m 15.142594,1.494773 c 1.79735,-0.222562 4.49735,-0.217969 6,0.0102 1.50265,0.228174 0.03209,0.41027 -3.267909,0.404657 -3.3,-0.0056 -4.529441,-0.192301 -2.732091,-0.414862 z M 36.8125,21.316886 c 0.721875,-0.288871 1.584375,-0.253344 1.916667,0.07895 0.332291,0.332292 -0.258334,0.568641 -1.3125,0.52522 -1.164943,-0.04798 -1.4019,-0.284941 -0.604167,-0.604167 z"
         style="fill:#4996cf" />
      <path
         id="path841"
         d="m 47.189798,28.15032 c -1.270612,-0.357676 69.542632,-0.531052 157.362762,-0.385279 144.62331,0.24006 159.61629,0.117349 159.07166,-1.301938 -0.34605,-0.901785 -0.18167,-1.307624 0.38723,-0.956024 0.5437,0.336025 0.98855,1.259397 0.98855,2.051938 0,1.248976 -21.0198,1.427701 -157.75,1.341303 C 120.4875,28.8455 48.460409,28.507996 47.189798,28.15032 Z M 39.8125,27.316886 c 0.721875,-0.288871 1.584375,-0.253344 1.916667,0.07895 0.332291,0.332292 -0.258334,0.568641 -1.3125,0.52522 -1.164943,-0.04798 -1.4019,-0.284941 -0.604167,-0.604167 z m 2.955409,-5.041617 c 1.79735,-0.222562 4.49735,-0.217969 6,0.0102 1.50265,0.228174 0.03209,0.41027 -3.267909,0.404657 -3.3,-0.0056 -4.529441,-0.192301 -2.732091,-0.414862 z M 27.666667,20.333333 C 26.734534,19.401201 26.83462,18 27.833333,18 c 0.458334,0 0.833334,0.675 0.833334,1.5 0,1.699352 -0.07308,1.760252 -1,0.833333 z m 5.145833,-0.01645 c 0.721875,-0.288871 1.584375,-0.253344 1.916667,0.07895 0.332291,0.332292 -0.258334,0.568641 -1.3125,0.52522 -1.164943,-0.04798 -1.4019,-0.284941 -0.604167,-0.604167 z"
         style="fill:#3196e2" />
      <path
         id="path839"
         d="m 52.776433,28.266503 c 2.352038,-0.211245 5.952038,-0.208273 8,0.0066 C 62.824395,28.487985 60.9,28.660822 56.5,28.65719 52.1,28.653557 50.424395,28.477749 52.776433,28.266503 Z M 364.07895,27.416667 c 0.048,-1.164943 0.28494,-1.4019 0.60416,-0.604167 0.28887,0.721875 0.25335,1.584375 -0.0789,1.916667 -0.33229,0.332291 -0.56864,-0.258334 -0.52522,-1.3125 z M 44.26375,22.282419 c 1.520062,-0.229855 3.770062,-0.223712 5,0.01365 1.229937,0.237362 -0.01375,0.425424 -2.76375,0.417917 -2.75,-0.0075 -3.756313,-0.201713 -2.23625,-0.431567 z M 27,19 c 0,-0.55 0.476558,-1 1.059017,-1 0.582459,0 0.780902,0.45 0.440983,1 -0.339919,0.55 -0.816476,1 -1.059017,1 C 27.198442,20 27,19.55 27,19 Z"
         style="fill:#3995da" />
    </g>
  </g>
</svg>
