<?xml version="1.0" encoding="UTF-8" standalone="no"?>
<svg
   xmlns="http://www.w3.org/2000/svg"
   viewBox="0 0 343.77753 14.883157"
   height="14.883157"
   width="343.77753"
   id="svg2"
   version="1.1">
  <metadata
     id="metadata8">
    image/svg+xml
  </metadata>
  <defs
     id="defs6" />
  <g
     transform="translate(-4.5464818,-8.0278965)"
     id="g10"
  >
    <g
       transform="translate(-0.70511396,-1.0576718)"
       id="g865">
      <path
         id="path889"
         d="M 25.69877,23.365436 C 25.393691,23.060357 23.874162,22.664412 22.32204,22.485559 18.501696,22.045335 16.73345,21.5896 15.25,20.662863 14.5625,20.23337 14,20.129428 14,20.431881 14,20.734335 12.65,19.569151 11,17.842584 9.35,16.116017 8,14.320113 8,13.851686 8,13.383259 7.4207619,13 6.7128043,13 6.0048467,13 5.3556424,12.071176 5.2701282,10.935946 5.1441338,9.2633299 5.6252998,8.9240143 7.8073239,9.1467301 c 1.4809718,0.1511604 3.5017651,0.9442659 4.4906511,1.7624579 0.988886,0.818191 2.563886,1.649028 3.5,1.846304 0.936114,0.197276 2.827025,0.652166 4.202025,1.010865 1.375,0.358699 75.136401,0.78839 163.91422,0.954868 l 161.41423,0.302687 1.56099,2.228635 c 2.48044,3.541324 2.35112,5.47026 -0.41326,6.164075 -3.0644,0.769116 -320.007683,0.718542 -320.77741,-0.05119 z"
         style="fill:#daeafd" />
      <path
         id="path887"
         d="M 20.589293,21.881786 C 15.166897,20.609886 10.474382,17.503634 8.0504065,13.581559 6.9226829,11.756864 6,10.011072 6,9.7020217 6,9.3929711 8.8125,10.346086 12.25,11.820056 L 18.5,14.5 181.74214,15 l 163.24215,0.5 2.0098,3.75 2.0098,3.75 -162.25195,-0.100451 C 92.237773,22.841035 22.867338,22.416134 20.589293,21.881786 Z"
         style="fill:#b4c5fe" />
      <path
         id="path885"
         d="m 19.543185,21.534583 c -3.636157,-0.97596 -6.100661,-2.541066 -9.25,-5.874297 C 7.9319331,13.161159 6,10.664988 6,10.113239 c 0,-0.5517497 2.5397983,0.120038 5.643996,1.492862 3.104198,1.372824 8.391698,2.727315 11.75,3.009981 3.358302,0.282666 76.932054,0.597183 163.497224,0.698928 L 344.28243,15.5 346.65577,19.25 349.02912,23 186.76456,22.93251 C 55.036572,22.877715 23.567177,22.614639 19.543185,21.534583 Z"
         style="fill:#acbaf8" />
      <path
         id="path883"
         d="M 22.3264,21.955623 C 20.03092,21.501737 16.80892,20.435429 15.166398,19.586048 12.342484,18.125745 6,11.373523 6,9.8274798 6,9.433222 8.3625,10.187134 11.25,11.50284 c 2.8875,1.315706 8.175,2.862411 11.75,3.437122 4.319692,0.694427 59.381267,1.047464 164.15122,1.052484 L 344.80245,16 346.8675,19.5 348.93255,23 187.71627,22.890434 C 99.047324,22.830173 24.62188,22.409508 22.3264,21.955623 Z"
         style="fill:#758ce4" />
      <path
         id="path881"
         d="M 23.20323,21.884592 C 16.113617,20.704585 12.864512,18.879344 8.8654168,13.830075 6.2607018,10.541354 5.95851,9.7785897 7.5075464,10.402665 8.6033959,10.84416 11.975,12.171672 15,13.352692 L 20.5,15.5 l 162.09749,0.267561 162.09748,0.267561 1.37043,2.732439 c 0.75373,1.502841 1.53486,3.069939 1.73585,3.482439 0.51779,1.062743 -318.172984,0.703985 -324.59802,-0.365408 z"
         style="fill:#576ed3" />
      <path
         id="path879"
         d="M 24.5,22.004815 C 17.224179,20.919738 12.616812,18.675238 9.6318217,14.761714 8.1843198,12.863942 7,11.068503 7,10.771851 c 0,-0.296652 2.8125,0.645824 6.25,2.094391 L 19.5,15.5 l 162.59746,0.26751 162.59747,0.26751 1.37045,2.73249 c 0.75374,1.502869 1.53488,3.06999 1.73587,3.48249 C 348.27636,23.225143 31.06967,22.984581 24.5,22.004815 Z"
         style="fill:#4e61bb" />
      <path
         id="path877"
         d="M 26.443686,21.983354 C 18.249907,21.118164 12.428717,18.462838 9.25,14.140487 8.0125,12.457761 7,10.890072 7,10.656734 c 0,-0.233338 2.8125,0.760941 6.25,2.209508 L 19.5,15.5 182.07177,15.764652 344.64355,16.029303 346.3056,19.514652 347.96764,23 190.73382,22.86422 C 104.25522,22.78954 30.324659,22.393151 26.443686,21.983354 Z"
         style="fill:#0329e0" />
      <path
         id="path875"
         d="M 26.443686,21.983354 C 18.249907,21.118164 12.428717,18.462838 9.25,14.140487 8.0125,12.457761 7,10.890072 7,10.656734 c 0,-0.233338 2.8125,0.760941 6.25,2.209508 L 19.5,15.5 182.07177,15.764652 344.64355,16.029303 346.3056,19.514652 347.96764,23 190.73382,22.86422 C 104.25522,22.78954 30.324659,22.393151 26.443686,21.983354 Z M 342.8352,18.605449 c 0.29028,-1.497107 0.0644,-1.559696 -1.68531,-0.466982 -1.11129,0.69401 -1.78339,1.645521 -1.49357,2.114471 0.8128,1.315135 2.8046,0.282863 3.17888,-1.647489 z M 32.729167,19.395833 c -0.332292,-0.332291 -1.194792,-0.367818 -1.916667,-0.07895 -0.797733,0.319226 -0.560776,0.556183 0.604167,0.604167 1.054166,0.04342 1.644791,-0.192928 1.3125,-0.52522 z m -8.222892,-1.222891 c -0.765216,-0.765217 -6.475913,-0.932832 -6.008383,-0.176352 0.227772,0.368542 1.783926,0.670077 3.458119,0.670077 1.674194,0 2.821813,-0.222176 2.550264,-0.493725 z m -9.382187,-2.439609 c -0.987616,-0.980267 -1.10248,-0.865403 -0.559795,0.559795 0.375531,0.986221 0.934692,1.541221 1.242579,1.233333 0.307887,-0.307887 6.34e-4,-1.114794 -0.682784,-1.793128 z m 19.605079,1.6625 c -0.332292,-0.332291 -1.194792,-0.367818 -1.916667,-0.07895 -0.797733,0.319226 -0.560776,0.556183 0.604167,0.604167 1.054166,0.04342 1.644791,-0.192928 1.3125,-0.52522 z M 261.25,17.250098 c -40.8375,-0.144602 -107.6625,-0.144602 -148.5,0 -40.8375,0.144602 -7.425,0.262912 74.25,0.262912 81.675,0 115.0875,-0.11831 74.25,-0.262912 z"
         style="fill:#0126dc" />
      <path
         id="path873"
         d="M 26.443686,21.983354 C 18.249907,21.118164 12.428717,18.462838 9.25,14.140487 8.0125,12.457761 7,10.890072 7,10.656734 c 0,-0.233338 2.8125,0.760941 6.25,2.209508 L 19.5,15.5 182.07177,15.764652 344.64355,16.029303 346.3056,19.514652 347.96764,23 190.73382,22.86422 C 104.25522,22.78954 30.324659,22.393151 26.443686,21.983354 Z m -0.64837,-3.028191 C 22.253734,17.084852 18.843592,16.823075 17.359103,18.307564 16.978263,18.688404 18.091667,19 19.833333,19 21.575,19 23,19.45 23,20 c 0,0.55 1.4625,0.980112 3.25,0.955804 l 3.25,-0.0442 -3.704684,-1.956445 z M 343.80964,19.25 c -0.319,-1.65654 -8.73878,-1.763517 -157.65769,-2.00311 -125.717526,-0.202265 -157.233189,-0.0014 -156.885111,1 0.239568,0.68921 1.515035,1.17417 2.83437,1.077687 1.319335,-0.09648 70.796891,-0.214679 154.394571,-0.262659 101.78514,-0.05842 152.10729,0.247287 152.33333,0.925422 0.18566,0.556963 1.45805,1.01266 2.82755,1.01266 1.83313,0 2.40109,-0.461647 2.15298,-1.75 z M 15.183333,15.783333 C 14.465771,15.065771 14,15.006729 14,15.633333 c 0,1.334781 1.18261,2.517391 1.85,1.85 0.284167,-0.284166 -0.01583,-1.049166 -0.666667,-1.7 z"
         style="fill:#0029d9" />
      <path
         id="path871"
         d="M 26.443686,21.983354 C 18.249907,21.118164 12.428717,18.462838 9.25,14.140487 8.0125,12.457761 7,10.890072 7,10.656734 c 0,-0.233338 2.8125,0.760941 6.25,2.209508 L 19.5,15.5 182.07177,15.764652 344.64355,16.029303 346.3056,19.514652 347.96764,23 190.73382,22.86422 C 104.25522,22.78954 30.324659,22.393151 26.443686,21.983354 Z M 345,20.587309 c 0,-0.233054 -0.27314,-1.135538 -0.60699,-2.005522 C 343.843,17.148482 328.69791,17 183.05194,17 43.560729,17 21.66909,16.803188 17.408931,15.510824 c -2.699912,-0.819046 -5.344111,-1.494046 -5.875997,-1.5 -1.9604108,-0.02194 4.742884,4.526333 8.295089,5.628329 2.675966,0.830162 47.274865,1.170718 164.421977,1.255522 88.4125,0.064 160.75,-0.07431 160.75,-0.307366 z"
         style="fill:#0628c1" />
      <path
         id="path869"
         d="M 189,22.004688 C 344.80954,21.502227 345.49848,21.491176 345.15493,19.5 c -0.39558,-2.292787 0.0781,-1.953427 1.7448,1.25 L 348.07037,23 190.28518,22.754688 32.5,22.509376 Z M 23.269032,21.307009 c 0.972967,-0.253543 2.322967,-0.236869 3,0.03705 C 26.946064,21.617986 26.15,21.825431 24.5,21.805051 22.85,21.784672 22.296064,21.560553 23.269032,21.307009 Z m 5.543468,0.0099 c 0.721875,-0.288871 1.584375,-0.253344 1.916667,0.07895 0.332291,0.332292 -0.258334,0.568641 -1.3125,0.52522 -1.164943,-0.04798 -1.4019,-0.284941 -0.604167,-0.604167 z M 15,19.053818 c -3.152657,-1.673422 -8.6813128,-7.705839 -7.8365498,-8.550602 0.1867598,-0.186759 1.4638852,0.282669 2.8380568,1.043175 1.374171,0.760506 1.950116,1.398684 1.279878,1.418174 -2.5912662,0.07535 0.131164,3.062122 5.004804,5.490759 2.808575,1.399572 4.455645,2.524788 3.660155,2.50048 C 19.150855,20.931496 16.925,20.075602 15,19.053818 Z m 90.82878,-2.803752 c 44.18083,-0.1441 116.18083,-0.144084 160,3.7e-5 43.81917,0.144121 7.67122,0.262022 -80.32878,0.262001 -88,-2e-5 -123.852048,-0.117937 -79.67122,-0.262038 z M 20.8125,15.316886 c 0.721875,-0.288871 1.584375,-0.253344 1.916667,0.07895 0.332291,0.332292 -0.258334,0.568641 -1.3125,0.52522 -1.164943,-0.04798 -1.4019,-0.284941 -0.604167,-0.604167 z"
         style="fill:#0c26b6" />
      <path
         id="path867"
         d="m 188.94292,22.250011 c 110.74842,-0.181427 156.63801,-0.571942 157.11084,-1.336993 0.42862,-0.69353 0.88566,-0.513275 1.27569,0.503136 0.55321,1.441643 -13.55272,1.561683 -157.11083,1.336993 L 32.5,22.506294 Z M 10.872445,16.25 C 9.6285741,14.663944 9.6639444,14.628574 11.25,15.872445 c 0.9625,0.754844 1.75,1.542344 1.75,1.75 0,0.823034 -0.821186,0.293303 -2.127555,-1.372445 z M 7.4689628,11.949781 C 6.5505032,10.463682 7.280962,9.9375761 8.8857231,10.929373 c 0.8597299,0.531342 0.9620084,1.0467 0.2901379,1.461939 -0.5707154,0.352721 -1.3388196,0.154032 -1.7068982,-0.441531 z"
         style="fill:#142a99" />
    </g>
  </g>
</svg>
