<?xml version="1.0" encoding="UTF-8" standalone="no"?>
<svg
   xmlns="http://www.w3.org/2000/svg"
   viewBox="0 0 344.12723 14.910036"
   height="14.910036"
   width="344.12723"
   id="svg2"
   version="1.1">
  <metadata
          id="metadata8">
  </metadata>
  <defs
     id="defs6" />
  <g
     transform="translate(-16.715244,-9.3502768)"
     id="g10"
  >
    <g
       transform="translate(-0.73661407,0.36830691)"
       id="g837">
      <path
         id="path861"
         d="m 18.696896,23.306273 c -1.52171,-0.3995 -1.59974,-0.724383 -0.5,-2.081782 1.085502,-1.339824 1.071748,-1.469023 -0.08237,-0.773706 -0.76201,0.459086 -0.339884,-0.579533 0.938058,-2.308042 L 21.376117,15 180.43806,14.999182 c 168.35469,-8.67e-4 167.54413,0.01973 176.16382,-4.475477 C 360.52481,8.4778766 362.68789,8.4662181 361,10.5 c -0.68469,0.825 -0.85229,1.514312 -0.37244,1.531803 0.47984,0.01749 -0.001,0.692492 -1.06869,1.5 C 358.49125,14.339312 357.94441,15 358.34367,15 c 0.39926,0 -0.80053,1.340246 -2.6662,2.978324 C 348.60253,24.190202 355.62624,23.954926 180,23.86307 92.275,23.817188 19.688603,23.56663 18.696896,23.306273 Z"
         style="fill:#daeafd" />
      <path
         id="path859"
         d="M 18.073088,22.264572 C 18.113287,21.844057 18.937367,20.15 19.904377,18.5 l 1.7582,-3 162.918713,-0.503105 c 116.80716,-0.360709 163.78435,-0.82071 165.97713,-1.62525 1.68213,-0.617179 4.53645,-1.886464 6.34293,-2.820631 1.80648,-0.9341677 3.54473,-1.4382641 3.86278,-1.1202144 C 361.84504,10.511706 355.33973,17.489507 350.91061,20 L 346.5,22.5 182.25,22.764572 c -90.3375,0.145514 -164.21711,-0.07949 -164.176912,-0.5 z"
         style="fill:#bacbf9" />
      <path
         id="path857"
         d="M 18,22.479431 C 18,22.005577 20.647018,17.468861 21.780526,16 21.992741,15.725 95.591438,15.275 185.33319,15 L 348.5,14.5 l 5.90228,-2.764391 c 3.24625,-1.520414 6.06189,-2.604771 6.25698,-2.409681 0.19509,0.1950901 -1.02956,2.265638 -2.72144,4.601218 -1.90441,2.628954 -4.85915,5.070492 -7.75699,6.409682 L 345.5,22.5 181.75,22.764614 C 91.6875,22.910152 18,22.78182 18,22.479431 Z"
         style="fill:#acbaf8" />
      <path
         id="path855"
         d="M 19.701391,19.5 21.370425,16 178.93521,15.979893 c 86.66064,-0.01106 160.31524,-0.41811 163.67691,-0.904558 3.36166,-0.486448 8.86699,-1.997195 12.23407,-3.357216 l 6.12195,-2.4727663 -1.73407,2.9934313 c -2.61919,4.521363 -7.63897,7.883596 -14.00782,9.382398 -4.67597,1.100409 -35.20737,1.350441 -166.46007,1.363197 L 18.032357,23 Z"
         style="fill:#758cdc" />
      <path
         id="path853"
         d="M 19.86123,19.75 21.918863,16.5 184.20943,16 346.5,15.5 l 6.45151,-2.715153 c 3.54834,-1.493334 6.63128,-2.53539 6.85099,-2.31568 0.21971,0.219711 -0.79338,1.963393 -2.25132,3.874849 -3.29525,4.320292 -7.92788,6.572455 -15.88833,7.724148 -3.39973,0.491862 -77.38265,0.900637 -165.01105,0.911729 L 17.803597,23 Z"
         style="fill:#596ed0" />
      <path
         id="path851"
         d="M 20.132501,19.5 22.197552,16 182.34878,15.988131 c 168.5634,-0.01249 163.47489,0.113418 173.91136,-4.303271 3.51573,-1.487846 3.70008,-1.48057 2.83606,0.111928 -1.20609,2.22298 -6.02112,6.663636 -8.73722,8.057883 -5.45921,2.80237 -23.79883,3.129126 -176.07525,3.137124 L 18.067451,23 Z"
         style="fill:#3046a1" />
      <path
         id="path849"
         d="m 19.188191,22.28169 c 0.206791,-0.429929 0.993271,-2.012594 1.747733,-3.517032 L 22.307673,16.029316 184.90384,15.764658 347.5,15.5 l 6.28907,-2.649539 c 4.80829,-2.025697 5.99733,-2.26115 5.05001,-1 -3.73946,4.978286 -6.77547,7.372311 -11.29869,8.909501 -4.66235,1.584472 -17.17894,1.735089 -166.88429,2.008182 C 91.64196,22.930524 18.981399,22.71162 19.188191,22.28169 Z"
         style="fill:#0128e1" />
      <path
         id="path847"
         d="m 19.188191,22.28169 c 0.206791,-0.429929 0.993271,-2.012594 1.747733,-3.517032 L 22.307673,16.029316 184.90384,15.764658 347.5,15.5 l 6.28907,-2.649539 c 4.80829,-2.025697 5.99733,-2.26115 5.05001,-1 -3.73946,4.978286 -6.77547,7.372311 -11.29869,8.909501 -4.66235,1.584472 -17.17894,1.735089 -166.88429,2.008182 C 91.64196,22.930524 18.981399,22.71162 19.188191,22.28169 Z M 24,20 c 0,-0.55 -0.476558,-1 -1.059017,-1 -0.582459,0 -0.780902,0.45 -0.440983,1 0.339919,0.55 0.816476,1 1.059017,1 C 23.801558,21 24,20.55 24,20 Z m 4.642857,-1.5 c 1.628061,-1.628061 1.38579,-1.831959 -1.06107,-0.893011 C 26.711804,17.940833 26,18.615833 26,19.106989 26,20.416579 26.942816,20.200041 28.642857,18.5 Z m 307.929313,0.38323 c 0.44583,-0.721375 -15.79821,0.0095 -16.53257,0.743836 -0.26639,0.266387 3.25715,0.349282 7.83008,0.184211 4.57293,-0.165071 8.48905,-0.582693 8.70249,-0.928047 z M 247.75,17.250105 c -39.4625,-0.144839 -104.0375,-0.144839 -143.5,0 -39.4625,0.144838 -7.175,0.263342 71.75,0.263342 78.925,0 111.2125,-0.118504 71.75,-0.263342 z"
         style="fill:#0126dc" />
      <path
         id="path845"
         d="m 19.188191,22.28169 c 0.206791,-0.429929 0.993271,-2.012594 1.747733,-3.517032 L 22.307673,16.029316 184.90384,15.764658 347.5,15.5 l 6.28907,-2.649539 c 4.80829,-2.025697 5.99733,-2.26115 5.05001,-1 -3.73946,4.978286 -6.77547,7.372311 -11.29869,8.909501 -4.66235,1.584472 -17.17894,1.735089 -166.88429,2.008182 C 91.64196,22.930524 18.981399,22.71162 19.188191,22.28169 Z M 24.767927,19 c 1.002427,-1.605141 0.998694,-2 -0.01891,-2 -0.69736,0 -1.829987,0.9 -2.516948,2 -1.002427,1.605141 -0.998694,2 0.01891,2 0.69736,0 1.829987,-0.9 2.516948,-2 z m 3.798056,0.893237 c 0.477183,-0.772098 0.936009,-0.699031 1.517376,0.241641 0.663695,1.073881 1.086146,1.095617 2.075,0.106763 C 33.135616,19.264384 63.794057,19 176.14098,19 c 78.50754,0 142.97786,0.383276 143.26738,0.851724 0.28952,0.468448 6.05358,0.80617 12.80902,0.750492 6.75544,-0.05568 10.48262,-0.244025 8.28262,-0.41855 -2.2,-0.174525 -4.45,-0.803264 -5,-1.397197 -0.67128,-0.724904 -0.65559,-0.888985 0.0478,-0.499156 0.57626,0.319396 1.6982,0.178718 2.4932,-0.312619 0.8526,-0.526941 -62.58334,-0.913913 -154.66743,-0.943501 C 53.404937,16.989432 27.072791,17.207366 26.138992,18.332525 25.048609,19.646356 25.540166,21 27.10765,21 c 0.425874,0 1.082124,-0.498043 1.458333,-1.106763 z M 350.73875,17.372655 c 1.23132,-0.330019 1.97875,-1.020726 1.66097,-1.534903 -0.3578,-0.578936 -1.01979,-0.57662 -1.73875,0.0061 -0.63853,0.517523 -2.06097,1.162173 -3.16097,1.432557 -1.11842,0.274913 -1.33882,0.53672 -0.5,0.593954 0.825,0.05629 2.50744,-0.167669 3.73875,-0.497689 z"
         style="fill:#0028d9" />
      <path
         id="path843"
         d="m 19.198754,22.25 c 0.200981,-0.4125 0.985713,-1.9875 1.743848,-3.5 L 22.32103,16 182.41052,15.976143 C 270.45973,15.963022 344.075,15.582497 346,15.130532 c 1.925,-0.451966 4.5125,-1.146555 5.75,-1.543531 1.2375,-0.396977 2.25,-0.343775 2.25,0.118226 C 354,16.794031 343.32612,17 183.2559,17 24.093823,17 23.063529,17.012778 22,19 20.931838,20.995879 21.262968,21.000314 182.71482,21.152487 271.69667,21.236355 341.575,21.633757 338,22.035603 329.36852,23.005819 18.728712,23.214728 19.198754,22.25 Z M 345.40986,20.145843 c 0.3895,-0.630214 1.69412,-1.162026 2.89916,-1.181806 2.64123,-0.04335 8.18821,-4.350492 7.34982,-5.707026 -0.32787,-0.530505 0.59221,-1.505996 2.04461,-2.167756 l 2.64074,-1.2032016 -2.52801,3.2781316 c -3.18983,4.136317 -6.51018,6.553462 -10.21533,7.43653 -2.06022,0.491024 -2.69423,0.359397 -2.19099,-0.454872 z"
         style="fill:#0628c2" />
      <path
         id="path841"
         d="m 19,22.059017 c 0,-0.517541 0.45,-1.219098 1,-1.559017 0.55,-0.339919 1,-0.142882 1,0.437858 0,0.735592 47.397869,1.133632 156.25,1.312165 L 333.5,22.506294 176.25,22.753147 C 78.483427,22.906622 19,22.644052 19,22.059017 Z m 326.8125,-1.742131 c 0.72187,-0.288871 1.58438,-0.253344 1.91667,0.07895 0.33229,0.332292 -0.25834,0.568641 -1.3125,0.52522 -1.16495,-0.04798 -1.4019,-0.284941 -0.60417,-0.604167 z m 8.51879,-3.972088 c 1.77139,-1.954481 2.38405,-3.273018 1.63658,-3.522174 -0.65709,-0.219031 0.0165,-0.950111 1.49691,-1.624622 l 2.69162,-1.2263843 -1.97027,2.7641913 c -1.08365,1.520305 -3.03134,3.657156 -4.3282,4.748558 -1.69316,1.424916 -1.55971,1.103638 0.47336,-1.139569 z M 23.25,16.310674 c 0.9625,-0.251527 2.5375,-0.251527 3.5,0 0.9625,0.251528 0.175,0.457323 -1.75,0.457323 -1.925,0 -2.7125,-0.205795 -1.75,-0.457323 z m 84,-0.06058 c 42.7625,-0.144295 112.7375,-0.144295 155.5,0 42.7625,0.144294 7.775,0.262353 -77.75,0.262353 -85.525,0 -120.5125,-0.118059 -77.75,-0.262353 z M 344.8125,15.31689 c 0.72187,-0.288871 1.58438,-0.253344 1.91667,0.07895 0.33229,0.332292 -0.25834,0.568641 -1.3125,0.52522 -1.16495,-0.04798 -1.4019,-0.284941 -0.60417,-0.604167 z"
         style="fill:#0c26b6" />
      <path
         id="path839"
         d="M 18.999934,22.25 C 18.999874,21.571868 127.16499,21.575697 277,22.259135 308.075,22.400876 262.7375,22.625556 176.25,22.758423 89.7625,22.89129 18.99997,22.6625 18.999934,22.25 Z M 357,11.606989 c 0,-0.216156 0.69837,-0.661002 1.55194,-0.988546 0.88992,-0.341496 1.29132,-0.173849 0.94098,0.393011 C 358.90566,11.961658 357,12.416902 357,11.606989 Z"
         style="fill:#132999" />
    </g>
  </g>
</svg>
